<svg width="19" height="24" viewBox="0 0 19 24" fill="none" xmlns="http://www.w3.org/2000/svg">
<path d="M13.9286 5.89284C13.9286 8.33867 11.9458 10.3214 9.49998 10.3214C7.05415 10.3214 5.07141 8.33867 5.07141 5.89284C5.07141 3.447 7.05415 1.46426 9.49998 1.46426C11.9458 1.46426 13.9286 3.447 13.9286 5.89284Z" stroke="black" stroke-width="2"/>
<mask id="path-2-inside-1_2335_1880" fill="white">
<path fill-rule="evenodd" clip-rule="evenodd" d="M19 21.0638C19 21.0638 19 21.0638 19 21.0638C19 16.4327 14.7467 12.6785 9.5 12.6785C4.25329 12.6785 0 16.4327 0 21.0638C0 21.0638 0 21.0638 0 21.0638H19Z"/>
</mask>
<path d="M19 21.0638V23.0638H21V21.0638H19ZM0 21.0638H-2V23.0638H0V21.0638ZM17 21.0638C17 21.0638 17 21.0638 17 21.0638C17 21.0638 17 21.0638 17 21.0638C17 21.0638 17 21.0638 17 21.0638C17 21.0638 17 21.0638 17 21.0638C17 21.0638 17 21.0638 17 21.0638C17 21.0638 17 21.0638 17 21.0638C17 21.0638 17 21.0638 17 21.0638C17 21.0638 17 21.0638 17 21.0638C17 21.0638 17 21.0638 17 21.0638C17 21.0638 17 21.0638 17 21.0638C17 21.0638 17 21.0638 17 21.0638C17 21.0638 17 21.0638 17 21.0638C17 21.0638 17 21.0638 17 21.0638C17 21.0638 17 21.0638 17 21.0638C17 21.0638 17 21.0638 17 21.0638C17 21.0638 17 21.0638 17 21.0638C17 21.0638 17 21.0638 17 21.0638C17 21.0638 17 21.0638 17 21.0638C17 21.0638 17 21.0638 17 21.0638C17 21.0638 17 21.0638 17 21.0638C17 21.0638 17 21.0638 17 21.0638C17 21.0638 17 21.0638 17 21.0638C17 21.0638 17 21.0638 17 21.0638C17 21.0638 17 21.0638 17 21.0638C17 21.0638 17 21.0638 17 21.0638C17 21.0638 17 21.0638 17 21.0638C17 21.0638 17 21.0638 17 21.0638C17 21.0638 17 21.0638 17 21.0638C17 21.0638 17 21.0638 17 21.0638C17 21.0638 17 21.0638 17 21.0638C17 21.0638 17 21.0638 17 21.0638C17 21.0638 17 21.0638 17 21.0638C17 21.0638 17 21.0638 17 21.0638C17 21.0638 17 21.0638 17 21.0638C17 21.0638 17 21.0638 17 21.0638C17 21.0638 17 21.0638 17 21.0638C17 21.0638 17 21.0638 17 21.0638C17 21.0638 17 21.0638 17 21.0638C17 21.0638 17 21.0638 17 21.0638C17 21.0638 17 21.0638 17 21.0638C17 21.0638 17 21.0638 17 21.0638C17 21.0638 17 21.0638 17 21.0638C17 21.0638 17 21.0638 17 21.0638C17 21.0638 17 21.0638 17 21.0638C17 21.0638 17 21.0638 17 21.0638C17 21.0638 17 21.0638 17 21.0638C17 21.0638 17 21.0638 17 21.0638C17 21.0638 17 21.0638 17 21.0638C17 21.0638 17 21.0638 17 21.0638C17 21.0638 17 21.0638 17 21.0638C17 21.0638 17 21.0638 17 21.0638C17 21.0638 17 21.0638 17 21.0638C17 21.0638 17 21.0638 17 21.0638C17 21.0638 17 21.0638 17 21.0638C17 21.0638 17 21.0638 17 21.0638C17 21.0638 17 21.0638 17 21.0638C17 21.0638 17 21.0638 17 21.0638C17 21.0638 17 21.0638 17 21.0638C17 21.0638 17 21.0638 17 21.0638C17 21.0638 17 21.0638 17 21.0638C17 21.0638 17 21.0638 17 21.0638C17 21.0638 17 21.0638 17 21.0638C17 21.0638 17 21.0638 17 21.0638C17 21.0638 17 21.0638 17 21.0638C17 21.0638 17 21.0638 17 21.0638C17 21.0638 17 21.0638 17 21.0638C17 21.0638 17 21.0638 17 21.0638C17 21.0638 17 21.0638 17 21.0638C17 21.0638 17 21.0638 17 21.0638C17 21.0638 17 21.0638 17 21.0638C17 21.0638 17 21.0638 17 21.0638C17 21.0638 17 21.0638 17 21.0638C17 21.0638 17 21.0638 17 21.0638C17 21.0638 17 21.0638 17 21.0638C17 21.0638 17 21.0638 17 21.0638C17 21.0638 17 21.0638 17 21.0638C17 21.0638 17 21.0638 17 21.0638C17 21.0638 17 21.0638 17 21.0638C17 21.0638 17 21.0638 17 21.0638C17 21.0638 17 21.0638 17 21.0638C17 21.0638 17 21.0638 17 21.0638C17 21.0638 17 21.0638 17 21.0638C17 21.0638 17 21.0638 17 21.0638C17 21.0638 17 21.0638 17 21.0638C17 21.0638 17 21.0638 17 21.0638C17 21.0638 17 21.0638 17 21.0638C17 21.0638 17 21.0638 17 21.0638C17 21.0638 17 21.0638 17 21.0638C17 21.0638 17 21.0638 17 21.0638C17 21.0638 17 21.0638 17 21.0638C17 21.0638 17 21.0638 17 21.0638C17 21.0638 17 21.0638 17 21.0638C17 21.0638 17 21.0638 17 21.0638C17 21.0638 17 21.0638 17 21.0638C17 21.0638 17 21.0638 17 21.0638C17 21.0638 17 21.0638 17 21.0638C17 21.0638 17 21.0638 17 21.0638C17 21.0638 17 21.0638 17 21.0638C17 21.0638 17 21.0638 17 21.0638C17 21.0638 17 21.0638 17 21.0638C17 21.0638 17 21.0638 17 21.0638C17 21.0638 17 21.0638 17 21.0638C17 21.0638 17 21.0638 17 21.0638C17 21.0638 17 21.0638 17 21.0638C17 21.0638 17 21.0638 17 21.0638C17 21.0638 17 21.0638 17 21.0638C17 21.0638 17 21.0638 17 21.0638C17 21.0638 17 21.0638 17 21.0638C17 21.0638 17 21.0638 17 21.0638C17 21.0638 17 21.0638 17 21.0638C17 21.0638 17 21.0638 17 21.0638C17 21.0638 17 21.0638 17 21.0638C17 21.0638 17 21.0638 17 21.0638C17 21.0638 17 21.0638 17 21.0638C17 21.0638 17 21.0638 17 21.0638C17 21.0638 17 21.0638 17 21.0638C17 21.0638 17 21.0638 17 21.0638C17 21.0638 17 21.0638 17 21.0638C17 21.0638 17 21.0638 17 21.0638C17 21.0638 17 21.0638 17 21.0638C17 21.0638 17 21.0638 17 21.0638C17 21.0638 17 21.0638 17 21.0638C17 21.0638 17 21.0638 17 21.0638C17 21.0638 17 21.0638 17 21.0638C17 21.0638 17 21.0638 17 21.0638C17 21.0638 17 21.0638 17 21.0638C17 21.0638 17 21.0638 17 21.0638C17 21.0638 17 21.0638 17 21.0638C17 21.0638 17 21.0638 17 21.0638C17 21.0638 17 21.0638 17 21.0638C17 21.0638 17 21.0638 17 21.0638C17 21.0638 17 21.0638 17 21.0638C17 21.0638 17 21.0638 17 21.0638C17 21.0638 17 21.0638 17 21.0638C17 21.0638 17 21.0638 17 21.0638C17 21.0638 17 21.0638 17 21.0638C17 21.0638 17 21.0638 17 21.0638C17 21.0638 17 21.0638 17 21.0638C17 21.0638 17 21.0638 17 21.0638C17 21.0638 17 21.0638 17 21.0638C17 21.0638 17 21.0638 17 21.0638C17 21.0638 17 21.0638 17 21.0638C17 21.0638 17 21.0638 17 21.0638C17 21.0638 17 21.0638 17 21.0638C17 21.0638 17 21.0638 17 21.0638C17 21.0638 17 21.0638 17 21.0638C17 21.0638 17 21.0638 17 21.0638C17 21.0638 17 21.0638 17 21.0638C17 21.0638 17 21.0638 17 21.0638C17 21.0638 17 21.0638 17 21.0638C17 21.0638 17 21.0638 17 21.0638C17 21.0638 17 21.0638 17 21.0638C17 21.0638 17 21.0638 17 21.0638C17 21.0638 17 21.0638 17 21.0638C17 21.0638 17 21.0638 17 21.0638C17 21.0638 17 21.0638 17 21.0638C17 21.0638 17 21.0638 17 21.0638C17 21.0638 17 21.0638 17 21.0638C17 21.0638 17 21.0638 17 21.0638C17 21.0638 17 21.0638 17 21.0638C17 21.0638 17 21.0638 17 21.0638C17 21.0638 17 21.0638 17 21.0638C17 21.0638 17 21.0638 17 21.0638C17 21.0638 17 21.0638 17 21.0638C17 21.0638 17 21.0638 17 21.0638C17 21.0638 17 21.0638 17 21.0638C17 21.0638 17 21.0638 17 21.0638C17 21.0638 17 21.0638 17 21.0638C17 21.0638 17 21.0638 17 21.0638C17 21.0638 17 21.0638 17 21.0638C17 21.0638 17 21.0638 17 21.0638C17 21.0638 17 21.0638 17 21.0638C17 21.0638 17 21.0638 17 21.0638C17 21.0638 17 21.0638 17 21.0638C17 21.0638 17 21.0638 17 21.0638C17 21.0638 17 21.0638 17 21.0638C17 21.0638 17 21.0638 17 21.0638C17 21.0638 17 21.0638 17 21.0638C17 21.0638 17 21.0638 17 21.0638C17 21.0638 17 21.0638 17 21.0638C17 21.0638 17 21.0638 17 21.0638C17 21.0638 17 21.0638 17 21.0638C17 21.0638 17 21.0638 17 21.0638C17 21.0638 17 21.0638 17 21.0638C17 21.0638 17 21.0638 17 21.0638C17 21.0638 17 21.0638 17 21.0638C17 21.0638 17 21.0638 17 21.0638C17 21.0638 17 21.0638 17 21.0638C17 21.0638 17 21.0638 17 21.0638C17 21.0638 17 21.0638 17 21.0638C17 21.0638 17 21.0638 17 21.0638C17 21.0638 17 21.0638 17 21.0638C17 21.0638 17 21.0638 17 21.0638C17 21.0638 17 21.0638 17 21.0638C17 21.0638 17 21.0638 17 21.0638C17 21.0638 17 21.0638 17 21.0638C17 21.0638 17 21.0638 17 21.0638C17 21.0638 17 21.0638 17 21.0638C17 21.0638 17 21.0638 17 21.0638C17 21.0638 17 21.0638 17 21.0638C17 21.0638 17 21.0638 17 21.0638C17 21.0638 17 21.0638 17 21.0638C17 21.0638 17 21.0638 17 21.0638C17 21.0638 17 21.0638 17 21.0638C17 21.0638 17 21.0638 17 21.0638C17 21.0638 17 21.0638 17 21.0638C17 21.0638 17 21.0638 17 21.0638C17 21.0638 17 21.0638 17 21.0638C17 21.0638 17 21.0638 17 21.0638C17 21.0638 17 21.0638 17 21.0638C17 21.0638 17 21.0638 17 21.0638C17 21.0638 17 21.0638 17 21.0638C17 21.0638 17 21.0638 17 21.0638C17 21.0638 17 21.0638 17 21.0638C17 21.0638 17 21.0638 17 21.0638C17 21.0638 17 21.0638 17 21.0638C17 21.0638 17 21.0638 17 21.0638C17 21.0638 17 21.0638 17 21.0638C17 21.0638 17 21.0638 17 21.0638C17 21.0638 17 21.0638 17 21.0638C17 21.0638 17 21.0638 17 21.0638C17 21.0638 17 21.0638 17 21.0638C17 21.0638 17 21.0638 17 21.0638C17 21.0638 17 21.0638 17 21.0638C17 21.0638 17 21.0638 17 21.0638C17 21.0638 17 21.0638 17 21.0638C17 21.0638 17 21.0638 17 21.0638C17 21.0638 17 21.0638 17 21.0638C17 21.0638 17 21.0638 17 21.0638C17 21.0638 17 21.0638 17 21.0638C17 21.0638 17 21.0638 17 21.0638C17 21.0638 17 21.0638 17 21.0638C17 21.0638 17 21.0638 17 21.0638C17 21.0638 17 21.0638 17 21.0638C17 21.0638 17 21.0638 17 21.0638C17 21.0638 17 21.0638 17 21.0638C17 21.0638 17 21.0638 17 21.0638C17 21.0638 17 21.0638 17 21.0638C17 21.0638 17 21.0638 17 21.0638C17 21.0638 17 21.0638 17 21.0638C17 21.0638 17 21.0638 17 21.0638C17 21.0638 17 21.0638 17 21.0638C17 21.0638 17 21.0638 17 21.0638C17 21.0638 17 21.0638 17 21.0638C17 21.0638 17 21.0638 17 21.0638C17 21.0638 17 21.0638 17 21.0638C17 21.0638 17 21.0638 17 21.0638C17 21.0638 17 21.0638 17 21.0638C17 21.0638 17 21.0638 17 21.0638C17 21.0638 17 21.0638 17 21.0638C17 21.0638 17 21.0638 17 21.0638C17 21.0638 17 21.0638 17 21.0638C17 21.0638 17 21.0638 17 21.0638C17 21.0638 17 21.0638 17 21.0638C17 21.0638 17 21.0638 17 21.0638C17 21.0638 17 21.0638 17 21.0638C17 21.0638 17 21.0638 17 21.0638C17 21.0638 17 21.0638 17 21.0638C17 21.0638 17 21.0638 17 21.0638C17 21.0638 17 21.0638 17 21.0638C17 21.0638 17 21.0638 17 21.0638C17 21.0638 17 21.0638 17 21.0638C17 21.0638 17 21.0638 17 21.0638C17 21.0638 17 21.0638 17 21.0638C17 21.0638 17 21.0638 17 21.0638C17 21.0638 17 21.0638 17 21.0638C17 21.0638 17 21.0638 17 21.0638C17 21.0638 17 21.0638 17 21.0638C17 21.0638 17 21.0638 17 21.0638C17 21.0638 17 21.0638 17 21.0638C17 21.0638 17 21.0638 17 21.0638C17 21.0638 17 21.0638 17 21.0638C17 21.0638 17 21.0638 17 21.0638C17 21.0638 17 21.0638 17 21.0638C17 21.0638 17 21.0638 17 21.0638C17 21.0638 17 21.0638 17 21.0638C17 21.0638 17 21.0638 17 21.0638C17 21.0638 17 21.0638 17 21.0638C17 21.0638 17 21.0638 17 21.0638C17 21.0638 17 21.0638 17 21.0638C17 21.0638 17 21.0638 17 21.0638C17 21.0638 17 21.0638 17 21.0638C17 21.0638 17 21.0638 17 21.0638C17 21.0638 17 21.0638 17 21.0638C17 21.0638 17 21.0638 17 21.0638C17 21.0638 17 21.0638 17 21.0638C17 21.0638 17 21.0638 17 21.0638C17 21.0638 17 21.0638 17 21.0638C17 21.0638 17 21.0638 17 21.0638C17 21.0638 17 21.0638 17 21.0638C17 21.0638 17 21.0638 17 21.0638C17 21.0638 17 21.0638 17 21.0638C17 21.0638 17 21.0638 17 21.0638C17 21.0638 17 21.0638 17 21.0638C17 21.0638 17 21.0638 17 21.0638C17 21.0638 17 21.0638 17 21.0638C17 21.0638 17 21.0638 17 21.0638C17 21.0638 17 21.0638 17 21.0638C17 21.0638 17 21.0638 17 21.0638C17 21.0638 17 21.0638 17 21.0638C17 21.0638 17 21.0638 17 21.0638C17 21.0638 17 21.0638 17 21.0638C17 21.0638 17 21.0638 17 21.0638C17 21.0638 17 21.0638 17 21.0638C17 21.0638 17 21.0638 17 21.0638C17 21.0638 17 21.0638 17 21.0638C17 21.0638 17 21.0638 17 21.0638C17 21.0638 17 21.0638 17 21.0638C17 21.0638 17 21.0638 17 21.0638C17 21.0638 17 21.0638 17 21.0638C17 21.0638 17 21.0638 17 21.0638C17 21.0638 17 21.0638 17 21.0638C17 21.0638 17 21.0638 17 21.0638C17 21.0638 17 21.0638 17 21.0638C17 21.0638 17 21.0638 17 21.0638C17 21.0638 17 21.0638 17 21.0638C17 21.0638 17 21.0638 17 21.0638C17 21.0638 17 21.0638 17 21.0638C17 21.0638 17 21.0638 17 21.0638C17 21.0638 17 21.0638 17 21.0638C17 21.0638 17 21.0638 17 21.0638C17 21.0638 17 21.0638 17 21.0638C17 21.0638 17 21.0638 17 21.0638C17 21.0638 17 21.0638 17 21.0638C17 21.0638 17 21.0638 17 21.0638C17 21.0638 17 21.0638 17 21.0638C17 21.0638 17 21.0638 17 21.0638C17 21.0638 17 21.0638 17 21.0638C17 21.0638 17 21.0638 17 21.0638C17 21.0638 17 21.0638 17 21.0638C17 21.0638 17 21.0638 17 21.0638C17 21.0638 17 21.0638 17 21.0638C17 21.0638 17 21.0638 17 21.0638C17 21.0638 17 21.0638 17 21.0638C17 21.0638 17 21.0638 17 21.0638C17 21.0638 17 21.0638 17 21.0638C17 21.0638 17 21.0638 17 21.0638C17 21.0638 17 21.0638 17 21.0638C17 21.0638 17 21.0638 17 21.0638C17 21.0638 17 21.0638 17 21.0638C17 21.0638 17 21.0638 17 21.0638C17 21.0638 17 21.0638 17 21.0638C17 21.0638 17 21.0638 17 21.0638C17 21.0638 17 21.0638 17 21.0638C17 21.0638 17 21.0638 17 21.0638C17 21.0638 17 21.0638 17 21.0638C17 21.0638 17 21.0638 17 21.0638C17 21.0638 17 21.0638 17 21.0638C17 21.0638 17 21.0638 17 21.0638C17 21.0638 17 21.0638 17 21.0638C17 21.0638 17 21.0638 17 21.0638C17 21.0638 17 21.0638 17 21.0638C17 21.0638 17 21.0638 17 21.0638C17 21.0638 17 21.0638 17 21.0638C17 21.0638 17 21.0638 17 21.0638C17 21.0638 17 21.0638 17 21.0638C17 21.0638 17 21.0638 17 21.0638C17 21.0638 17 21.0638 17 21.0638C17 21.0638 17 21.0638 17 21.0638C17 21.0638 17 21.0638 17 21.0638C17 21.0638 17 21.0638 17 21.0638C17 21.0638 17 21.0638 17 21.0638C17 21.0638 17 21.0638 17 21.0638C17 21.0638 17 21.0638 17 21.0638C17 21.0638 17 21.0638 17 21.0638C17 21.0638 17 21.0638 17 21.0638C17 21.0638 17 21.0638 17 21.0638C17 21.0638 17 21.0638 17 21.0638C17 21.0638 17 21.0638 17 21.0638C17 21.0638 17 21.0638 17 21.0638C17 21.0638 17 21.0638 17 21.0638C17 21.0638 17 21.0638 17 21.0638C17 21.0638 17 21.0638 17 21.0638C17 21.0638 17 21.0638 17 21.0638C17 21.0638 17 21.0638 17 21.0638C17 21.0638 17 21.0638 17 21.0638C17 21.0638 17 21.0638 17 21.0638C17 21.0638 17 21.0638 17 21.0638C17 21.0638 17 21.0638 17 21.0638C17 21.0638 17 21.0638 17 21.0638C17 21.0638 17 21.0638 17 21.0638C17 21.0638 17 21.0638 17 21.0638C17 21.0638 17 21.0638 17 21.0638C17 21.0638 17 21.0638 17 21.0638C17 21.0638 17 21.0638 17 21.0638C17 21.0638 17 21.0638 17 21.0638C17 21.0638 17 21.0638 17 21.0638C17 21.0638 17 21.0638 17 21.0638C17 21.0638 17 21.0638 17 21.0638C17 21.0638 17 21.0638 17 21.0638C17 21.0638 17 21.0638 17 21.0638C17 21.0638 17 21.0638 17 21.0638C17 21.0638 17 21.0638 17 21.0638C17 21.0638 17 21.0638 17 21.0638C17 21.0638 17 21.0638 17 21.0638C17 21.0638 17 21.0638 17 21.0638C17 21.0638 17 21.0638 17 21.0638C17 21.0638 17 21.0638 17 21.0638C17 21.0638 17 21.0638 17 21.0638C17 21.0638 17 21.0638 17 21.0638C17 21.0638 17 21.0638 17 21.0638C17 21.0638 17 21.0638 17 21.0638C17 21.0638 17 21.0638 17 21.0638C17 21.0638 17 21.0638 17 21.0638C17 21.0638 17 21.0638 17 21.0638C17 21.0638 17 21.0638 17 21.0638C17 21.0638 17 21.0638 17 21.0638C17 21.0638 17 21.0638 17 21.0638C17 21.0638 17 21.0638 17 21.0638C17 21.0638 17 21.0638 17 21.0638C17 21.0638 17 21.0638 17 21.0638C17 21.0638 17 21.0638 17 21.0638C17 21.0638 17 21.0638 17 21.0638C17 21.0638 17 21.0638 17 21.0638C17 21.0638 17 21.0638 17 21.0638C17 21.0638 17 21.0638 17 21.0638C17 21.0638 17 21.0638 17 21.0638C17 21.0638 17 21.0638 17 21.0638C17 21.0638 17 21.0638 17 21.0638C17 21.0638 17 21.0638 17 21.0638C17 21.0638 17 21.0638 17 21.0638C17 21.0638 17 21.0638 17 21.0638C17 21.0638 17 21.0638 17 21.0638C17 21.0638 17 21.0638 17 21.0638C17 21.0638 17 21.0638 17 21.0638C17 21.0638 17 21.0638 17 21.0638C17 21.0638 17 21.0638 17 21.0638C17 21.0638 17 21.0638 17 21.0638C17 21.0638 17 21.0638 17 21.0638C17 21.0638 17 21.0638 17 21.0638C17 21.0638 17 21.0638 17 21.0638C17 21.0638 17 21.0638 17 21.0638C17 21.0638 17 21.0638 17 21.0638C17 21.0638 17 21.0638 17 21.0638C17 21.0638 17 21.0638 17 21.0638C17 21.0638 17 21.0638 17 21.0638C17 21.0638 17 21.0638 17 21.0638C17 21.0638 17 21.0638 17 21.0638C17 21.0638 17 21.0638 17 21.0638C17 21.0638 17 21.0638 17 21.0638C17 21.0638 17 21.0638 17 21.0638C17 21.0638 17 21.0638 17 21.0638C17 21.0638 17 21.0638 17 21.0638C17 21.0638 17 21.0638 17 21.0638C17 21.0638 17 21.0638 17 21.0638C17 21.0638 17 21.0638 17 21.0638C17 21.0638 17 21.0638 17 21.0638C17 21.0638 17 21.0638 17 21.0638C17 21.0638 17 21.0638 17 21.0638C17 21.0638 17 21.0638 17 21.0638C17 21.0638 17 21.0638 17 21.0638C17 21.0638 17 21.0638 17 21.0638C17 21.0638 17 21.0638 17 21.0638C17 21.0638 17 21.0638 17 21.0638C17 21.0638 17 21.0638 17 21.0638C17 21.0638 17 21.0638 17 21.0638C17 21.0638 17 21.0638 17 21.0638C17 21.0638 17 21.0638 17 21.0638C17 21.0638 17 21.0638 17 21.0638C17 21.0638 17 21.0638 17 21.0638C17 21.0638 17 21.0638 17 21.0638C17 21.0638 17 21.0638 17 21.0638C17 21.0638 17 21.0638 17 21.0638C17 21.0638 17 21.0638 17 21.0638C17 21.0638 17 21.0638 17 21.0638C17 21.0638 17 21.0638 17 21.0638C17 21.0638 17 21.0638 17 21.0638C17 21.0638 17 21.0638 17 21.0638C17 21.0638 17 21.0638 17 21.0638C17 21.0638 17 21.0638 17 21.0638C17 21.0638 17 21.0638 17 21.0638C17 21.0638 17 21.0638 17 21.0638C17 21.0638 17 21.0638 17 21.0638C17 21.0638 17 21.0638 17 21.0638C17 21.0638 17 21.0638 17 21.0638C17 21.0638 17 21.0638 17 21.0638C17 21.0638 17 21.0638 17 21.0638C17 21.0638 17 21.0638 17 21.0638C17 21.0638 17 21.0638 17 21.0638C17 21.0638 17 21.0638 17 21.0638C17 21.0638 17 21.0638 17 21.0638C17 21.0638 17 21.0638 17 21.0638C17 21.0638 17 21.0638 17 21.0638C17 21.0638 17 21.0638 17 21.0638C17 21.0638 17 21.0638 17 21.0638C17 21.0638 17 21.0638 17 21.0638C17 21.0638 17 21.0638 17 21.0638C17 21.0638 17 21.0638 17 21.0638C17 21.0638 17 21.0638 17 21.0638C17 21.0638 17 21.0638 17 21.0638C17 21.0638 17 21.0638 17 21.0638C17 21.0638 17 21.0638 17 21.0638C17 21.0638 17 21.0638 17 21.0638C17 21.0638 17 21.0638 17 21.0638C17 21.0638 17 21.0638 17 21.0638C17 21.0638 17 21.0638 17 21.0638C17 21.0638 17 21.0638 17 21.0638C17 21.0638 17 21.0638 17 21.0638C17 21.0638 17 21.0638 17 21.0638C17 21.0638 17 21.0638 17 21.0638C17 21.0638 17 21.0638 17 21.0638C17 21.0638 17 21.0638 17 21.0638C17 21.0638 17 21.0638 17 21.0638C17 21.0638 17 21.0638 17 21.0638C17 21.0638 17 21.0638 17 21.0638C17 21.0638 17 21.0638 17 21.0638C17 21.0638 17 21.0638 17 21.0638C17 21.0638 17 21.0638 17 21.0638C17 21.0638 17 21.0638 17 21.0638C17 21.0638 17 21.0638 17 21.0638C17 21.0638 17 21.0638 17 21.0638C17 21.0638 17 21.0638 17 21.0638H21C21 21.0638 21 21.0638 21 21.0638C21 21.0638 21 21.0638 21 21.0638C21 21.0638 21 21.0638 21 21.0638C21 21.0638 21 21.0638 21 21.0638C21 21.0638 21 21.0638 21 21.0638C21 21.0638 21 21.0638 21 21.0638C21 21.0638 21 21.0638 21 21.0638C21 21.0638 21 21.0638 21 21.0638C21 21.0638 21 21.0638 21 21.0638C21 21.0638 21 21.0638 21 21.0638C21 21.0638 21 21.0638 21 21.0638C21 21.0638 21 21.0638 21 21.0638C21 21.0638 21 21.0638 21 21.0638C21 21.0638 21 21.0638 21 21.0638C21 21.0638 21 21.0638 21 21.0638C21 21.0638 21 21.0638 21 21.0638C21 21.0638 21 21.0638 21 21.0638C21 21.0638 21 21.0638 21 21.0638C21 21.0638 21 21.0638 21 21.0638C21 21.0638 21 21.0638 21 21.0638C21 21.0638 21 21.0638 21 21.0638C21 21.0638 21 21.0638 21 21.0638C21 21.0638 21 21.0638 21 21.0638C21 21.0638 21 21.0638 21 21.0638C21 21.0638 21 21.0638 21 21.0638C21 21.0638 21 21.0638 21 21.0638C21 21.0638 21 21.0638 21 21.0638C21 21.0638 21 21.0638 21 21.0638C21 21.0638 21 21.0638 21 21.0638C21 21.0638 21 21.0638 21 21.0638C21 21.0638 21 21.0638 21 21.0638C21 21.0638 21 21.0638 21 21.0638C21 21.0638 21 21.0638 21 21.0638C21 21.0638 21 21.0638 21 21.0638C21 21.0638 21 21.0638 21 21.0638C21 21.0638 21 21.0638 21 21.0638C21 21.0638 21 21.0638 21 21.0638C21 21.0638 21 21.0638 21 21.0638C21 21.0638 21 21.0638 21 21.0638C21 21.0638 21 21.0638 21 21.0638C21 21.0638 21 21.0638 21 21.0638C21 21.0638 21 21.0638 21 21.0638C21 21.0638 21 21.0638 21 21.0638C21 21.0638 21 21.0638 21 21.0638C21 21.0638 21 21.0638 21 21.0638C21 21.0638 21 21.0638 21 21.0638C21 21.0638 21 21.0638 21 21.0638C21 21.0638 21 21.0638 21 21.0638C21 21.0638 21 21.0638 21 21.0638C21 21.0638 21 21.0638 21 21.0638C21 21.0638 21 21.0638 21 21.0638C21 21.0638 21 21.0638 21 21.0638C21 21.0638 21 21.0638 21 21.0638C21 21.0638 21 21.0638 21 21.0638C21 21.0638 21 21.0638 21 21.0638C21 21.0638 21 21.0638 21 21.0638C21 21.0638 21 21.0638 21 21.0638C21 21.0638 21 21.0638 21 21.0638C21 21.0638 21 21.0638 21 21.0638C21 21.0638 21 21.0638 21 21.0638C21 21.0638 21 21.0638 21 21.0638C21 21.0638 21 21.0638 21 21.0638C21 21.0638 21 21.0638 21 21.0638C21 21.0638 21 21.0638 21 21.0638C21 21.0638 21 21.0638 21 21.0638C21 21.0638 21 21.0638 21 21.0638C21 21.0638 21 21.0638 21 21.0638C21 21.0638 21 21.0638 21 21.0638C21 21.0638 21 21.0638 21 21.0638C21 21.0638 21 21.0638 21 21.0638C21 21.0638 21 21.0638 21 21.0638C21 21.0638 21 21.0638 21 21.0638C21 21.0638 21 21.0638 21 21.0638C21 21.0638 21 21.0638 21 21.0638C21 21.0638 21 21.0638 21 21.0638C21 21.0638 21 21.0638 21 21.0638C21 21.0638 21 21.0638 21 21.0638C21 21.0638 21 21.0638 21 21.0638C21 21.0638 21 21.0638 21 21.0638C21 21.0638 21 21.0638 21 21.0638C21 21.0638 21 21.0638 21 21.0638C21 21.0638 21 21.0638 21 21.0638C21 21.0638 21 21.0638 21 21.0638C21 21.0638 21 21.0638 21 21.0638C21 21.0638 21 21.0638 21 21.0638C21 21.0638 21 21.0638 21 21.0638C21 21.0638 21 21.0638 21 21.0638C21 21.0638 21 21.0638 21 21.0638C21 21.0638 21 21.0638 21 21.0638C21 21.0638 21 21.0638 21 21.0638C21 21.0638 21 21.0638 21 21.0638C21 21.0638 21 21.0638 21 21.0638C21 21.0638 21 21.0638 21 21.0638C21 21.0638 21 21.0638 21 21.0638C21 21.0638 21 21.0638 21 21.0638C21 21.0638 21 21.0638 21 21.0638C21 21.0638 21 21.0638 21 21.0638C21 21.0638 21 21.0638 21 21.0638C21 21.0638 21 21.0638 21 21.0638C21 21.0638 21 21.0638 21 21.0638C21 21.0638 21 21.0638 21 21.0638C21 21.0638 21 21.0638 21 21.0638C21 21.0638 21 21.0638 21 21.0638C21 21.0638 21 21.0638 21 21.0638C21 21.0638 21 21.0638 21 21.0638C21 21.0638 21 21.0638 21 21.0638C21 21.0638 21 21.0638 21 21.0638C21 21.0638 21 21.0638 21 21.0638C21 21.0638 21 21.0638 21 21.0638C21 21.0638 21 21.0638 21 21.0638C21 21.0638 21 21.0638 21 21.0638C21 21.0638 21 21.0638 21 21.0638C21 21.0638 21 21.0638 21 21.0638C21 21.0638 21 21.0638 21 21.0638C21 21.0638 21 21.0638 21 21.0638C21 21.0638 21 21.0638 21 21.0638C21 21.0638 21 21.0638 21 21.0638C21 21.0638 21 21.0638 21 21.0638C21 21.0638 21 21.0638 21 21.0638C21 21.0638 21 21.0638 21 21.0638C21 21.0638 21 21.0638 21 21.0638C21 21.0638 21 21.0638 21 21.0638C21 21.0638 21 21.0638 21 21.0638C21 21.0638 21 21.0638 21 21.0638C21 21.0638 21 21.0638 21 21.0638C21 21.0638 21 21.0638 21 21.0638C21 21.0638 21 21.0638 21 21.0638C21 21.0638 21 21.0638 21 21.0638C21 21.0638 21 21.0638 21 21.0638C21 21.0638 21 21.0638 21 21.0638C21 21.0638 21 21.0638 21 21.0638C21 21.0638 21 21.0638 21 21.0638C21 21.0638 21 21.0638 21 21.0638C21 21.0638 21 21.0638 21 21.0638C21 21.0638 21 21.0638 21 21.0638C21 21.0638 21 21.0638 21 21.0638C21 21.0638 21 21.0638 21 21.0638C21 21.0638 21 21.0638 21 21.0638C21 21.0638 21 21.0638 21 21.0638C21 21.0638 21 21.0638 21 21.0638C21 21.0638 21 21.0638 21 21.0638C21 21.0638 21 21.0638 21 21.0638C21 21.0638 21 21.0638 21 21.0638C21 21.0638 21 21.0638 21 21.0638C21 21.0638 21 21.0638 21 21.0638C21 21.0638 21 21.0638 21 21.0638C21 21.0638 21 21.0638 21 21.0638C21 21.0638 21 21.0638 21 21.0638C21 21.0638 21 21.0638 21 21.0638C21 21.0638 21 21.0638 21 21.0638C21 21.0638 21 21.0638 21 21.0638C21 21.0638 21 21.0638 21 21.0638C21 21.0638 21 21.0638 21 21.0638C21 21.0638 21 21.0638 21 21.0638C21 21.0638 21 21.0638 21 21.0638C21 21.0638 21 21.0638 21 21.0638C21 21.0638 21 21.0638 21 21.0638C21 21.0638 21 21.0638 21 21.0638C21 21.0638 21 21.0638 21 21.0638C21 21.0638 21 21.0638 21 21.0638C21 21.0638 21 21.0638 21 21.0638C21 21.0638 21 21.0638 21 21.0638C21 21.0638 21 21.0638 21 21.0638C21 21.0638 21 21.0638 21 21.0638C21 21.0638 21 21.0638 21 21.0638C21 21.0638 21 21.0638 21 21.0638C21 21.0638 21 21.0638 21 21.0638C21 21.0638 21 21.0638 21 21.0638C21 21.0638 21 21.0638 21 21.0638C21 21.0638 21 21.0638 21 21.0638C21 21.0638 21 21.0638 21 21.0638C21 21.0638 21 21.0638 21 21.0638C21 21.0638 21 21.0638 21 21.0638C21 21.0638 21 21.0638 21 21.0638C21 21.0638 21 21.0638 21 21.0638C21 21.0638 21 21.0638 21 21.0638C21 21.0638 21 21.0638 21 21.0638C21 21.0638 21 21.0638 21 21.0638C21 21.0638 21 21.0638 21 21.0638C21 21.0638 21 21.0638 21 21.0638C21 21.0638 21 21.0638 21 21.0638C21 21.0638 21 21.0638 21 21.0638C21 21.0638 21 21.0638 21 21.0638C21 21.0638 21 21.0638 21 21.0638C21 21.0638 21 21.0638 21 21.0638C21 21.0638 21 21.0638 21 21.0638C21 21.0638 21 21.0638 21 21.0638C21 21.0638 21 21.0638 21 21.0638C21 21.0638 21 21.0638 21 21.0638C21 21.0638 21 21.0638 21 21.0638C21 21.0638 21 21.0638 21 21.0638C21 21.0638 21 21.0638 21 21.0638C21 21.0638 21 21.0638 21 21.0638C21 21.0638 21 21.0638 21 21.0638C21 21.0638 21 21.0638 21 21.0638C21 21.0638 21 21.0638 21 21.0638C21 21.0638 21 21.0638 21 21.0638C21 21.0638 21 21.0638 21 21.0638C21 21.0638 21 21.0638 21 21.0638C21 21.0638 21 21.0638 21 21.0638C21 21.0638 21 21.0638 21 21.0638C21 21.0638 21 21.0638 21 21.0638C21 21.0638 21 21.0638 21 21.0638C21 21.0638 21 21.0638 21 21.0638C21 21.0638 21 21.0638 21 21.0638C21 21.0638 21 21.0638 21 21.0638C21 21.0638 21 21.0638 21 21.0638C21 21.0638 21 21.0638 21 21.0638C21 21.0638 21 21.0638 21 21.0638C21 21.0638 21 21.0638 21 21.0638C21 21.0638 21 21.0638 21 21.0638C21 21.0638 21 21.0638 21 21.0638C21 21.0638 21 21.0638 21 21.0638C21 21.0638 21 21.0638 21 21.0638C21 21.0638 21 21.0638 21 21.0638C21 21.0638 21 21.0638 21 21.0638C21 21.0638 21 21.0638 21 21.0638C21 21.0638 21 21.0638 21 21.0638C21 21.0638 21 21.0638 21 21.0638C21 21.0638 21 21.0638 21 21.0638C21 21.0638 21 21.0638 21 21.0638C21 21.0638 21 21.0638 21 21.0638C21 21.0638 21 21.0638 21 21.0638C21 21.0638 21 21.0638 21 21.0638C21 21.0638 21 21.0638 21 21.0638C21 21.0638 21 21.0638 21 21.0638C21 21.0638 21 21.0638 21 21.0638C21 21.0638 21 21.0638 21 21.0638C21 21.0638 21 21.0638 21 21.0638C21 21.0638 21 21.0638 21 21.0638C21 21.0638 21 21.0638 21 21.0638C21 21.0638 21 21.0638 21 21.0638C21 21.0638 21 21.0638 21 21.0638C21 21.0638 21 21.0638 21 21.0638C21 21.0638 21 21.0638 21 21.0638C21 21.0638 21 21.0638 21 21.0638C21 21.0638 21 21.0638 21 21.0638C21 21.0638 21 21.0638 21 21.0638C21 21.0638 21 21.0638 21 21.0638C21 21.0638 21 21.0638 21 21.0638C21 21.0638 21 21.0638 21 21.0638C21 21.0638 21 21.0638 21 21.0638C21 21.0638 21 21.0638 21 21.0638C21 21.0638 21 21.0638 21 21.0638C21 21.0638 21 21.0638 21 21.0638C21 21.0638 21 21.0638 21 21.0638C21 21.0638 21 21.0638 21 21.0638C21 21.0638 21 21.0638 21 21.0638C21 21.0638 21 21.0638 21 21.0638C21 21.0638 21 21.0638 21 21.0638C21 21.0638 21 21.0638 21 21.0638C21 21.0638 21 21.0638 21 21.0638C21 21.0638 21 21.0638 21 21.0638C21 21.0638 21 21.0638 21 21.0638C21 21.0638 21 21.0638 21 21.0638C21 21.0638 21 21.0638 21 21.0638C21 21.0638 21 21.0638 21 21.0638C21 21.0638 21 21.0638 21 21.0638C21 21.0638 21 21.0638 21 21.0638C21 21.0638 21 21.0638 21 21.0638C21 21.0638 21 21.0638 21 21.0638C21 21.0638 21 21.0638 21 21.0638C21 21.0638 21 21.0638 21 21.0638C21 21.0638 21 21.0638 21 21.0638C21 21.0638 21 21.0638 21 21.0638C21 21.0638 21 21.0638 21 21.0638C21 21.0638 21 21.0638 21 21.0638C21 21.0638 21 21.0638 21 21.0638C21 21.0638 21 21.0638 21 21.0638C21 21.0638 21 21.0638 21 21.0638C21 21.0638 21 21.0638 21 21.0638C21 21.0638 21 21.0638 21 21.0638C21 21.0638 21 21.0638 21 21.0638C21 21.0638 21 21.0638 21 21.0638C21 21.0638 21 21.0638 21 21.0638C21 21.0638 21 21.0638 21 21.0638C21 21.0638 21 21.0638 21 21.0638C21 21.0638 21 21.0638 21 21.0638C21 21.0638 21 21.0638 21 21.0638C21 21.0638 21 21.0638 21 21.0638C21 21.0638 21 21.0638 21 21.0638C21 21.0638 21 21.0638 21 21.0638C21 21.0638 21 21.0638 21 21.0638C21 21.0638 21 21.0638 21 21.0638C21 21.0638 21 21.0638 21 21.0638C21 21.0638 21 21.0638 21 21.0638C21 21.0638 21 21.0638 21 21.0638C21 21.0638 21 21.0638 21 21.0638C21 21.0638 21 21.0638 21 21.0638C21 21.0638 21 21.0638 21 21.0638C21 21.0638 21 21.0638 21 21.0638C21 21.0638 21 21.0638 21 21.0638C21 21.0638 21 21.0638 21 21.0638C21 21.0638 21 21.0638 21 21.0638C21 21.0638 21 21.0638 21 21.0638C21 21.0638 21 21.0638 21 21.0638C21 21.0638 21 21.0638 21 21.0638C21 21.0638 21 21.0638 21 21.0638C21 21.0638 21 21.0638 21 21.0638C21 21.0638 21 21.0638 21 21.0638C21 21.0638 21 21.0638 21 21.0638C21 21.0638 21 21.0638 21 21.0638C21 21.0638 21 21.0638 21 21.0638C21 21.0638 21 21.0638 21 21.0638C21 21.0638 21 21.0638 21 21.0638C21 21.0638 21 21.0638 21 21.0638C21 21.0638 21 21.0638 21 21.0638C21 21.0638 21 21.0638 21 21.0638C21 21.0638 21 21.0638 21 21.0638C21 21.0638 21 21.0638 21 21.0638C21 21.0638 21 21.0638 21 21.0638C21 21.0638 21 21.0638 21 21.0638C21 21.0638 21 21.0638 21 21.0638C21 21.0638 21 21.0638 21 21.0638C21 21.0638 21 21.0638 21 21.0638C21 21.0638 21 21.0638 21 21.0638C21 21.0638 21 21.0638 21 21.0638C21 21.0638 21 21.0638 21 21.0638C21 21.0638 21 21.0638 21 21.0638C21 21.0638 21 21.0638 21 21.0638C21 21.0638 21 21.0638 21 21.0638C21 21.0638 21 21.0638 21 21.0638C21 21.0638 21 21.0638 21 21.0638C21 21.0638 21 21.0638 21 21.0638C21 21.0638 21 21.0638 21 21.0638C21 21.0638 21 21.0638 21 21.0638C21 21.0638 21 21.0638 21 21.0638C21 21.0638 21 21.0638 21 21.0638C21 21.0638 21 21.0638 21 21.0638C21 21.0638 21 21.0638 21 21.0638C21 21.0638 21 21.0638 21 21.0638C21 21.0638 21 21.0638 21 21.0638C21 21.0638 21 21.0638 21 21.0638C21 21.0638 21 21.0638 21 21.0638C21 21.0638 21 21.0638 21 21.0638C21 21.0638 21 21.0638 21 21.0638C21 21.0638 21 21.0638 21 21.0638C21 21.0638 21 21.0638 21 21.0638C21 21.0638 21 21.0638 21 21.0638C21 21.0638 21 21.0638 21 21.0638C21 21.0638 21 21.0638 21 21.0638C21 21.0638 21 21.0638 21 21.0638C21 21.0638 21 21.0638 21 21.0638C21 21.0638 21 21.0638 21 21.0638C21 21.0638 21 21.0638 21 21.0638C21 21.0638 21 21.0638 21 21.0638C21 21.0638 21 21.0638 21 21.0638C21 21.0638 21 21.0638 21 21.0638C21 21.0638 21 21.0638 21 21.0638C21 21.0638 21 21.0638 21 21.0638C21 21.0638 21 21.0638 21 21.0638C21 21.0638 21 21.0638 21 21.0638C21 21.0638 21 21.0638 21 21.0638C21 21.0638 21 21.0638 21 21.0638C21 21.0638 21 21.0638 21 21.0638C21 21.0638 21 21.0638 21 21.0638C21 21.0638 21 21.0638 21 21.0638C21 21.0638 21 21.0638 21 21.0638C21 21.0638 21 21.0638 21 21.0638C21 21.0638 21 21.0638 21 21.0638C21 21.0638 21 21.0638 21 21.0638C21 21.0638 21 21.0638 21 21.0638C21 21.0638 21 21.0638 21 21.0638C21 21.0638 21 21.0638 21 21.0638C21 21.0638 21 21.0638 21 21.0638C21 21.0638 21 21.0638 21 21.0638C21 21.0638 21 21.0638 21 21.0638C21 21.0638 21 21.0638 21 21.0638C21 21.0638 21 21.0638 21 21.0638C21 21.0638 21 21.0638 21 21.0638C21 21.0638 21 21.0638 21 21.0638C21 21.0638 21 21.0638 21 21.0638C21 21.0638 21 21.0638 21 21.0638C21 21.0638 21 21.0638 21 21.0638C21 21.0638 21 21.0638 21 21.0638C21 21.0638 21 21.0638 21 21.0638C21 21.0638 21 21.0638 21 21.0638C21 21.0638 21 21.0638 21 21.0638C21 21.0638 21 21.0638 21 21.0638C21 21.0638 21 21.0638 21 21.0638C21 21.0638 21 21.0638 21 21.0638C21 21.0638 21 21.0638 21 21.0638C21 21.0638 21 21.0638 21 21.0638C21 21.0638 21 21.0638 21 21.0638C21 21.0638 21 21.0638 21 21.0638C21 21.0638 21 21.0638 21 21.0638C21 21.0638 21 21.0638 21 21.0638C21 21.0638 21 21.0638 21 21.0638C21 21.0638 21 21.0638 21 21.0638C21 21.0638 21 21.0638 21 21.0638C21 21.0638 21 21.0638 21 21.0638C21 21.0638 21 21.0638 21 21.0638C21 21.0638 21 21.0638 21 21.0638C21 21.0638 21 21.0638 21 21.0638C21 21.0638 21 21.0638 21 21.0638C21 21.0638 21 21.0638 21 21.0638C21 21.0638 21 21.0638 21 21.0638C21 21.0638 21 21.0638 21 21.0638C21 21.0638 21 21.0638 21 21.0638C21 21.0638 21 21.0638 21 21.0638C21 21.0638 21 21.0638 21 21.0638C21 21.0638 21 21.0638 21 21.0638C21 21.0638 21 21.0638 21 21.0638C21 21.0638 21 21.0638 21 21.0638C21 21.0638 21 21.0638 21 21.0638C21 21.0638 21 21.0638 21 21.0638C21 21.0638 21 21.0638 21 21.0638C21 21.0638 21 21.0638 21 21.0638C21 21.0638 21 21.0638 21 21.0638C21 21.0638 21 21.0638 21 21.0638C21 21.0638 21 21.0638 21 21.0638C21 21.0638 21 21.0638 21 21.0638C21 21.0638 21 21.0638 21 21.0638C21 21.0638 21 21.0638 21 21.0638C21 21.0638 21 21.0638 21 21.0638C21 21.0638 21 21.0638 21 21.0638C21 21.0638 21 21.0638 21 21.0638C21 21.0638 21 21.0638 21 21.0638C21 21.0638 21 21.0638 21 21.0638C21 21.0638 21 21.0638 21 21.0638C21 21.0638 21 21.0638 21 21.0638C21 21.0638 21 21.0638 21 21.0638C21 21.0638 21 21.0638 21 21.0638C21 21.0638 21 21.0638 21 21.0638C21 21.0638 21 21.0638 21 21.0638C21 21.0638 21 21.0638 21 21.0638C21 21.0638 21 21.0638 21 21.0638C21 21.0638 21 21.0638 21 21.0638C21 21.0638 21 21.0638 21 21.0638C21 21.0638 21 21.0638 21 21.0638C21 21.0638 21 21.0638 21 21.0638C21 21.0638 21 21.0638 21 21.0638C21 21.0638 21 21.0638 21 21.0638C21 21.0638 21 21.0638 21 21.0638C21 21.0638 21 21.0638 21 21.0638C21 21.0638 21 21.0638 21 21.0638C21 21.0638 21 21.0638 21 21.0638C21 21.0638 21 21.0638 21 21.0638C21 21.0638 21 21.0638 21 21.0638C21 21.0638 21 21.0638 21 21.0638C21 21.0638 21 21.0638 21 21.0638C21 21.0638 21 21.0638 21 21.0638C21 21.0638 21 21.0638 21 21.0638C21 21.0638 21 21.0638 21 21.0638C21 21.0638 21 21.0638 21 21.0638C21 21.0638 21 21.0638 21 21.0638C21 21.0638 21 21.0638 21 21.0638C21 21.0638 21 21.0638 21 21.0638C21 21.0638 21 21.0638 21 21.0638C21 21.0638 21 21.0638 21 21.0638C21 21.0638 21 21.0638 21 21.0638C21 21.0638 21 21.0638 21 21.0638C21 21.0638 21 21.0638 21 21.0638C21 21.0638 21 21.0638 21 21.0638C21 21.0638 21 21.0638 21 21.0638C21 21.0638 21 21.0638 21 21.0638C21 21.0638 21 21.0638 21 21.0638C21 21.0638 21 21.0638 21 21.0638C21 21.0638 21 21.0638 21 21.0638C21 21.0638 21 21.0638 21 21.0638C21 21.0638 21 21.0638 21 21.0638C21 21.0638 21 21.0638 21 21.0638C21 21.0638 21 21.0638 21 21.0638C21 21.0638 21 21.0638 21 21.0638C21 21.0638 21 21.0638 21 21.0638C21 21.0638 21 21.0638 21 21.0638C21 21.0638 21 21.0638 21 21.0638C21 21.0638 21 21.0638 21 21.0638C21 21.0638 21 21.0638 21 21.0638C21 21.0638 21 21.0638 21 21.0638C21 21.0638 21 21.0638 21 21.0638C21 21.0638 21 21.0638 21 21.0638C21 21.0638 21 21.0638 21 21.0638C21 21.0638 21 21.0638 21 21.0638C21 21.0638 21 21.0638 21 21.0638C21 21.0638 21 21.0638 21 21.0638C21 21.0638 21 21.0638 21 21.0638C21 21.0638 21 21.0638 21 21.0638C21 21.0638 21 21.0638 21 21.0638C21 21.0638 21 21.0638 21 21.0638C21 21.0638 21 21.0638 21 21.0638C21 21.0638 21 21.0638 21 21.0638C21 21.0638 21 21.0638 21 21.0638C21 21.0638 21 21.0638 21 21.0638C21 21.0638 21 21.0638 21 21.0638C21 21.0638 21 21.0638 21 21.0638C21 21.0638 21 21.0638 21 21.0638C21 21.0638 21 21.0638 21 21.0638C21 21.0638 21 21.0638 21 21.0638C21 21.0638 21 21.0638 21 21.0638C21 21.0638 21 21.0638 21 21.0638C21 21.0638 21 21.0638 21 21.0638C21 21.0638 21 21.0638 21 21.0638C21 21.0638 21 21.0638 21 21.0638C21 21.0638 21 21.0638 21 21.0638C21 21.0638 21 21.0638 21 21.0638C21 21.0638 21 21.0638 21 21.0638C21 21.0638 21 21.0638 21 21.0638C21 21.0638 21 21.0638 21 21.0638C21 21.0638 21 21.0638 21 21.0638C21 21.0638 21 21.0638 21 21.0638C21 21.0638 21 21.0638 21 21.0638C21 21.0638 21 21.0638 21 21.0638C21 21.0638 21 21.0638 21 21.0638C21 21.0638 21 21.0638 21 21.0638C21 21.0638 21 21.0638 21 21.0638C21 21.0638 21 21.0638 21 21.0638C21 21.0638 21 21.0638 21 21.0638C21 21.0638 21 21.0638 21 21.0638C21 21.0638 21 21.0638 21 21.0638C21 21.0638 21 21.0638 21 21.0638C21 21.0638 21 21.0638 21 21.0638H17ZM9.5 14.6785C13.884 14.6785 17 17.7646 17 21.0638H21C21 15.1008 15.6094 10.6785 9.5 10.6785V14.6785ZM2 21.0638C2 17.7646 5.11596 14.6785 9.5 14.6785V10.6785C3.39063 10.6785 -2 15.1008 -2 21.0638H2ZM2 21.0638C2 21.0638 2 21.0638 2 21.0638C2 21.0638 2 21.0638 2 21.0638H-2C-2 21.0638 -2 21.0638 -2 21.0638C-2 21.0638 -2 21.0638 -2 21.0638H2ZM0 23.0638H19V19.0638H0V23.0638Z" fill="black" mask="url(#path-2-inside-1_2335_1880)"/>
</svg>
