<svg width="21" height="18" viewBox="0 0 21 18" fill="none" xmlns="http://www.w3.org/2000/svg">
<g clip-path="url(#clip0_2335_1881)">
<path d="M-3.2281e-05 0.999992H1.66035H3.32072L6.1132 13H18.4906M3.99999 2.77514H20L17.5849 9.87573H5.50943" stroke="black" stroke-width="2"/>
<path d="M7.87694 16.4769C7.87694 17.2926 7.2157 17.9538 6.40002 17.9538C5.58434 17.9538 4.9231 17.2926 4.9231 16.4769C4.9231 15.6612 5.58434 15 6.40002 15C7.2157 15 7.87694 15.6612 7.87694 16.4769Z" fill="black"/>
<path d="M18.3385 16.4769C18.3385 17.2926 17.6772 17.9538 16.8616 17.9538C16.0459 17.9538 15.3846 17.2926 15.3846 16.4769C15.3846 15.6612 16.0459 15 16.8616 15C17.6772 15 18.3385 15.6612 18.3385 16.4769Z" fill="black"/>
</g>
<defs>
<clipPath id="clip0_2335_1881">
<rect width="21" height="18" fill="white"/>
</clipPath>
</defs>
</svg>
