<svg width="21" height="22" viewBox="0 0 21 22" fill="none" xmlns="http://www.w3.org/2000/svg">
<path d="M18.235 4.53375C17.7881 4.08662 17.2575 3.73194 16.6734 3.48994C16.0894 3.24795 15.4634 3.1234 14.8313 3.1234C14.1991 3.1234 13.5731 3.24795 12.9891 3.48994C12.4051 3.73194 11.8744 4.08662 11.4275 4.53375L10.5 5.46125L9.57251 4.53375C8.66978 3.63101 7.44542 3.12387 6.16876 3.12387C4.89211 3.12387 3.66774 3.63101 2.76501 4.53375C1.86228 5.43648 1.35513 6.66084 1.35513 7.9375C1.35513 9.21415 1.86228 10.4385 2.76501 11.3412L3.69251 12.2687L10.5 19.0762L17.3075 12.2687L18.235 11.3412C18.6821 10.8943 19.0368 10.3637 19.2788 9.77968C19.5208 9.19565 19.6454 8.56967 19.6454 7.9375C19.6454 7.30532 19.5208 6.67934 19.2788 6.09531C19.0368 5.51128 18.6821 4.98066 18.235 4.53375V4.53375Z" stroke="black" stroke-width="2" stroke-linecap="round"/>
</svg>
