<svg width="239" height="48" viewBox="0 0 239 48" fill="none" xmlns="http://www.w3.org/2000/svg">
<path d="M36.4912 24C36.4912 34.0768 28.3224 42.2456 18.2456 42.2456C8.16884 42.2456 0 34.0768 0 24C0 13.9232 8.16884 5.75439 18.2456 5.75439C28.3224 5.75439 36.4912 13.9232 36.4912 24Z" fill="#121212"/>
<path fill-rule="evenodd" clip-rule="evenodd" d="M18.2456 42.2456C28.3224 42.2456 36.4912 34.0768 36.4912 24C36.4912 13.9232 28.3224 5.75439 18.2456 5.75439C8.16884 5.75439 0 13.9232 0 24C0 34.0768 8.16884 42.2456 18.2456 42.2456Z" fill="black"/>
<path d="M17.9834 14.4084C18.0203 14.0978 18.4709 14.0978 18.5078 14.4084L18.8169 17.0135C19.216 20.3774 21.8682 23.0296 25.2321 23.4287L27.8372 23.7378C28.1478 23.7747 28.1478 24.2253 27.8372 24.2622L25.2321 24.5713C21.8682 24.9704 19.216 27.6226 18.8169 30.9865L18.5078 33.5916C18.4709 33.9022 18.0203 33.9022 17.9834 33.5916L17.6743 30.9865C17.2752 27.6226 14.623 24.9704 11.2591 24.5713L8.65396 24.2622C8.34342 24.2253 8.34342 23.7747 8.65396 23.7378L11.2591 23.4287C14.623 23.0296 17.2752 20.3774 17.6743 17.0135L17.9834 14.4084Z" fill="white"/>
<path d="M63.4448 16.28V21.88H70.9648V25.432H63.4448V31.352H71.9248V35H58.9648V12.632H71.9248V16.28H63.4448ZM74.8441 26.136C74.8441 24.3013 75.2174 22.7013 75.9641 21.336C76.7108 19.9493 77.7454 18.8827 79.0681 18.136C80.3908 17.368 81.9054 16.984 83.6121 16.984C85.8094 16.984 87.6228 17.5387 89.0521 18.648C90.5028 19.736 91.4734 21.272 91.9641 23.256H87.1321C86.8761 22.488 86.4388 21.8907 85.8201 21.464C85.2228 21.016 84.4761 20.792 83.5801 20.792C82.3001 20.792 81.2868 21.2613 80.5401 22.2C79.7934 23.1173 79.4201 24.4293 79.4201 26.136C79.4201 27.8213 79.7934 29.1333 80.5401 30.072C81.2868 30.9893 82.3001 31.448 83.5801 31.448C85.3934 31.448 86.5774 30.6373 87.1321 29.016H91.9641C91.4734 30.936 90.5028 32.4613 89.0521 33.592C87.6014 34.7227 85.7881 35.288 83.6121 35.288C81.9054 35.288 80.3908 34.9147 79.0681 34.168C77.7454 33.4 76.7108 32.3333 75.9641 30.968C75.2174 29.5813 74.8441 27.9707 74.8441 26.136ZM105.23 17.016C106.574 17.016 107.769 17.3147 108.814 17.912C109.859 18.488 110.67 19.352 111.246 20.504C111.843 21.6347 112.142 23 112.142 24.6V35H107.662V25.208C107.662 23.8 107.31 22.7227 106.606 21.976C105.902 21.208 104.942 20.824 103.726 20.824C102.489 20.824 101.507 21.208 100.782 21.976C100.078 22.7227 99.7261 23.8 99.7261 25.208V35H95.2461V11.32H99.7261V19.48C100.302 18.712 101.07 18.1147 102.03 17.688C102.99 17.24 104.057 17.016 105.23 17.016ZM124.274 35.288C122.568 35.288 121.032 34.9147 119.666 34.168C118.301 33.4 117.224 32.3227 116.434 30.936C115.666 29.5493 115.282 27.9493 115.282 26.136C115.282 24.3227 115.677 22.7227 116.466 21.336C117.277 19.9493 118.376 18.8827 119.762 18.136C121.149 17.368 122.696 16.984 124.402 16.984C126.109 16.984 127.656 17.368 129.042 18.136C130.429 18.8827 131.517 19.9493 132.306 21.336C133.117 22.7227 133.522 24.3227 133.522 26.136C133.522 27.9493 133.106 29.5493 132.274 30.936C131.464 32.3227 130.354 33.4 128.946 34.168C127.56 34.9147 126.002 35.288 124.274 35.288ZM124.274 31.384C125.085 31.384 125.842 31.192 126.546 30.808C127.272 30.4027 127.848 29.8053 128.274 29.016C128.701 28.2267 128.914 27.2667 128.914 26.136C128.914 24.4507 128.466 23.16 127.57 22.264C126.696 21.3467 125.618 20.888 124.338 20.888C123.058 20.888 121.981 21.3467 121.106 22.264C120.253 23.16 119.826 24.4507 119.826 26.136C119.826 27.8213 120.242 29.1227 121.074 30.04C121.928 30.936 122.994 31.384 124.274 31.384ZM141.289 20.024C141.865 19.0853 142.611 18.3493 143.529 17.816C144.467 17.2827 145.534 17.016 146.729 17.016V21.72H145.545C144.137 21.72 143.07 22.0507 142.345 22.712C141.641 23.3733 141.289 24.5253 141.289 26.168V35H136.809V17.272H141.289V20.024ZM148.594 26.072C148.594 24.28 148.946 22.6907 149.65 21.304C150.375 19.9173 151.346 18.8507 152.562 18.104C153.799 17.3573 155.175 16.984 156.69 16.984C158.013 16.984 159.165 17.2507 160.146 17.784C161.149 18.3173 161.949 18.9893 162.546 19.8V17.272H167.058V35H162.546V32.408C161.97 33.24 161.17 33.9333 160.146 34.488C159.143 35.0213 157.981 35.288 156.658 35.288C155.165 35.288 153.799 34.904 152.562 34.136C151.346 33.368 150.375 32.2907 149.65 30.904C148.946 29.496 148.594 27.8853 148.594 26.072ZM162.546 26.136C162.546 25.048 162.333 24.12 161.906 23.352C161.479 22.5627 160.903 21.9653 160.178 21.56C159.453 21.1333 158.674 20.92 157.842 20.92C157.01 20.92 156.242 21.1227 155.538 21.528C154.834 21.9333 154.258 22.5307 153.81 23.32C153.383 24.088 153.17 25.0053 153.17 26.072C153.17 27.1387 153.383 28.0773 153.81 28.888C154.258 29.6773 154.834 30.2853 155.538 30.712C156.263 31.1387 157.031 31.352 157.842 31.352C158.674 31.352 159.453 31.1493 160.178 30.744C160.903 30.3173 161.479 29.72 161.906 28.952C162.333 28.1627 162.546 27.224 162.546 26.136Z" fill="black"/>
<path d="M184.491 23.46C184.945 23.46 185.351 23.5733 185.711 23.8C186.085 24.0133 186.378 24.3067 186.591 24.68C186.818 25.04 186.931 25.4467 186.931 25.9C186.931 26.34 186.818 26.7467 186.591 27.12C186.378 27.4933 186.085 27.7933 185.711 28.02C185.351 28.2333 184.945 28.34 184.491 28.34C184.051 28.34 183.645 28.2333 183.271 28.02C182.898 27.7933 182.598 27.4933 182.371 27.12C182.158 26.7467 182.051 26.34 182.051 25.9C182.051 25.4467 182.158 25.04 182.371 24.68C182.598 24.3067 182.898 24.0133 183.271 23.8C183.645 23.5733 184.051 23.46 184.491 23.46ZM200.131 26.84C200.731 26.7067 201.411 26.5533 202.171 26.38C202.931 26.1933 203.731 25.9933 204.571 25.78C205.425 25.5533 206.265 25.3333 207.091 25.12L207.351 27.1C206.205 27.42 205.045 27.74 203.871 28.06C202.711 28.3667 201.651 28.6467 200.691 28.9L200.131 26.84ZM200.371 20.44H207.091V22.44H200.371V20.44ZM202.831 16.56H204.931V32.78C204.931 33.3 204.871 33.7067 204.751 34C204.645 34.3067 204.431 34.54 204.111 34.7C203.805 34.86 203.411 34.96 202.931 35C202.465 35.0533 201.891 35.08 201.211 35.08C201.171 34.8 201.091 34.4733 200.971 34.1C200.865 33.7267 200.745 33.4 200.611 33.12C200.998 33.1333 201.371 33.14 201.731 33.14C202.091 33.14 202.338 33.14 202.471 33.14C202.711 33.14 202.831 33.02 202.831 32.78V16.56ZM209.351 23.06H215.991V25.02H209.351V23.06ZM209.091 32.38H215.871V34.28H209.091V32.38ZM208.251 26.8H216.911V35.24H214.731V28.7H210.351V35.28H208.251V26.8ZM213.411 17.24C213.798 18.0533 214.278 18.8533 214.851 19.64C215.438 20.4267 216.085 21.1467 216.791 21.8C217.511 22.4533 218.251 22.9933 219.011 23.42C218.851 23.5533 218.671 23.7267 218.471 23.94C218.285 24.14 218.098 24.3533 217.911 24.58C217.738 24.7933 217.591 24.9933 217.471 25.18C216.698 24.66 215.951 24.0133 215.231 23.24C214.525 22.4533 213.871 21.5933 213.271 20.66C212.685 19.7267 212.185 18.7733 211.771 17.8L213.411 17.24ZM211.911 16.54L213.931 17.12C213.318 18.8 212.491 20.3533 211.451 21.78C210.425 23.1933 209.211 24.3933 207.811 25.38C207.705 25.22 207.558 25.0467 207.371 24.86C207.198 24.66 207.011 24.4667 206.811 24.28C206.625 24.08 206.451 23.92 206.291 23.8C207.158 23.24 207.951 22.5733 208.671 21.8C209.405 21.0267 210.045 20.1933 210.591 19.3C211.151 18.3933 211.591 17.4733 211.911 16.54ZM230.911 25.58H233.091V32.34C233.091 32.6867 233.138 32.9133 233.231 33.02C233.325 33.1133 233.545 33.16 233.891 33.16C233.971 33.16 234.098 33.16 234.271 33.16C234.458 33.16 234.665 33.16 234.891 33.16C235.118 33.16 235.325 33.16 235.511 33.16C235.698 33.16 235.845 33.16 235.951 33.16C236.191 33.16 236.365 33.0867 236.471 32.94C236.591 32.78 236.678 32.4733 236.731 32.02C236.785 31.5533 236.825 30.86 236.851 29.94C236.998 30.06 237.191 30.18 237.431 30.3C237.671 30.4067 237.911 30.5067 238.151 30.6C238.405 30.6933 238.625 30.7667 238.811 30.82C238.745 31.9533 238.618 32.84 238.431 33.48C238.258 34.12 237.991 34.56 237.631 34.8C237.271 35.0533 236.771 35.18 236.131 35.18C236.025 35.18 235.851 35.18 235.611 35.18C235.371 35.18 235.118 35.18 234.851 35.18C234.585 35.18 234.331 35.18 234.091 35.18C233.865 35.18 233.698 35.18 233.591 35.18C232.885 35.18 232.338 35.0933 231.951 34.92C231.565 34.7467 231.291 34.4533 231.131 34.04C230.985 33.6267 230.911 33.0667 230.911 32.36V25.58ZM225.551 25.68H227.851C227.771 26.7867 227.631 27.8267 227.431 28.8C227.231 29.76 226.905 30.6467 226.451 31.46C226.011 32.2733 225.378 32.9933 224.551 33.62C223.738 34.26 222.665 34.8067 221.331 35.26C221.251 35.06 221.138 34.84 220.991 34.6C220.845 34.3733 220.685 34.1467 220.511 33.92C220.338 33.7067 220.171 33.5267 220.011 33.38C221.211 33.0333 222.165 32.6067 222.871 32.1C223.578 31.58 224.111 31 224.471 30.36C224.831 29.7067 225.085 28.9867 225.231 28.2C225.378 27.4133 225.485 26.5733 225.551 25.68ZM222.011 18.18L223.951 17.46C224.271 17.9533 224.585 18.4933 224.891 19.08C225.198 19.6667 225.471 20.24 225.711 20.8C225.951 21.36 226.131 21.8667 226.251 22.32L224.171 23.16C224.065 22.72 223.898 22.2133 223.671 21.64C223.458 21.0667 223.205 20.48 222.911 19.88C222.618 19.2667 222.318 18.7 222.011 18.18ZM235.011 17.28L237.291 18.06C236.998 18.6467 236.691 19.2467 236.371 19.86C236.051 20.4733 235.731 21.06 235.411 21.62C235.105 22.1667 234.805 22.6467 234.511 23.06L232.651 22.34C232.931 21.9 233.218 21.3867 233.511 20.8C233.805 20.2133 234.085 19.6133 234.351 19C234.618 18.3867 234.838 17.8133 235.011 17.28ZM220.511 23.98H238.531V26H220.511V23.98ZM228.331 16.56H230.511V24.82H228.331V16.56Z" fill="black"/>
</svg>
