<svg width="112" height="33" viewBox="0 0 112 33" fill="none" xmlns="http://www.w3.org/2000/svg">
<path d="M22 16.5C22 22.5751 17.0751 27.5 11 27.5C4.92487 27.5 0 22.5751 0 16.5C0 10.4249 4.92487 5.5 11 5.5C17.0751 5.5 22 10.4249 22 16.5Z" fill="#121212"/>
<path fill-rule="evenodd" clip-rule="evenodd" d="M11 27.5C17.0751 27.5 22 22.5751 22 16.5C22 10.4249 17.0751 5.5 11 5.5C4.92487 5.5 0 10.4249 0 16.5C0 22.5751 4.92487 27.5 11 27.5Z" fill="black"/>
<path d="M10.8419 10.7173C10.8642 10.5301 11.1358 10.5301 11.1581 10.7173L11.3444 12.2879C11.5851 14.316 13.184 15.9149 15.2121 16.1556L16.7826 16.3419C16.9699 16.3642 16.9699 16.6358 16.7826 16.6581L15.2121 16.8444C13.184 17.0851 11.5851 18.684 11.3444 20.7121L11.1581 22.2826C11.1358 22.4699 10.8642 22.4699 10.8419 22.2826L10.6556 20.7121C10.4149 18.684 8.81598 17.0851 6.78792 16.8444L5.21734 16.6581C5.03012 16.6358 5.03012 16.3642 5.21734 16.3419L6.78792 16.1556C8.81598 15.9149 10.4149 14.316 10.6556 12.2879L10.8419 10.7173Z" fill="white"/>
<path d="M38.9369 11.13V14.98H44.1069V17.422H38.9369V21.492H44.7669V24H35.8569V8.622H44.7669V11.13H38.9369ZM46.7739 17.906C46.7739 16.6447 47.0305 15.5447 47.5439 14.606C48.0572 13.6527 48.7685 12.9193 49.6779 12.406C50.5872 11.878 51.6285 11.614 52.8019 11.614C54.3125 11.614 55.5592 11.9953 56.5419 12.758C57.5392 13.506 58.2065 14.562 58.5439 15.926H55.2219C55.0459 15.398 54.7452 14.9873 54.3199 14.694C53.9092 14.386 53.3959 14.232 52.7799 14.232C51.8999 14.232 51.2032 14.5547 50.6899 15.2C50.1765 15.8307 49.9199 16.7327 49.9199 17.906C49.9199 19.0647 50.1765 19.9667 50.6899 20.612C51.2032 21.2427 51.8999 21.558 52.7799 21.558C54.0265 21.558 54.8405 21.0007 55.2219 19.886H58.5439C58.2065 21.206 57.5392 22.2547 56.5419 23.032C55.5445 23.8093 54.2979 24.198 52.8019 24.198C51.6285 24.198 50.5872 23.9413 49.6779 23.428C48.7685 22.9 48.0572 22.1667 47.5439 21.228C47.0305 20.2747 46.7739 19.1673 46.7739 17.906ZM67.6642 11.636C68.5882 11.636 69.4096 11.8413 70.1282 12.252C70.8469 12.648 71.4042 13.242 71.8002 14.034C72.2109 14.8113 72.4162 15.75 72.4162 16.85V24H69.3362V17.268C69.3362 16.3 69.0942 15.5593 68.6102 15.046C68.1262 14.518 67.4662 14.254 66.6302 14.254C65.7796 14.254 65.1049 14.518 64.6062 15.046C64.1222 15.5593 63.8802 16.3 63.8802 17.268V24H60.8002V7.72H63.8802V13.33C64.2762 12.802 64.8042 12.3913 65.4642 12.098C66.1242 11.79 66.8576 11.636 67.6642 11.636ZM80.7571 24.198C79.5838 24.198 78.5278 23.9413 77.5891 23.428C76.6505 22.9 75.9098 22.1593 75.3671 21.206C74.8391 20.2527 74.5751 19.1527 74.5751 17.906C74.5751 16.6593 74.8465 15.5593 75.3891 14.606C75.9465 13.6527 76.7018 12.9193 77.6551 12.406C78.6085 11.878 79.6718 11.614 80.8451 11.614C82.0185 11.614 83.0818 11.878 84.0351 12.406C84.9885 12.9193 85.7365 13.6527 86.2791 14.606C86.8365 15.5593 87.1151 16.6593 87.1151 17.906C87.1151 19.1527 86.8291 20.2527 86.2571 21.206C85.6998 22.1593 84.9371 22.9 83.9691 23.428C83.0158 23.9413 81.9451 24.198 80.7571 24.198ZM80.7571 21.514C81.3145 21.514 81.8351 21.382 82.3191 21.118C82.8178 20.8393 83.2138 20.4287 83.5071 19.886C83.8005 19.3433 83.9471 18.6833 83.9471 17.906C83.9471 16.7473 83.6391 15.86 83.0231 15.244C82.4218 14.6133 81.6811 14.298 80.8011 14.298C79.9211 14.298 79.1805 14.6133 78.5791 15.244C77.9925 15.86 77.6991 16.7473 77.6991 17.906C77.6991 19.0647 77.9851 19.9593 78.5571 20.59C79.1438 21.206 79.8771 21.514 80.7571 21.514ZM92.4544 13.704C92.8504 13.0587 93.3638 12.5527 93.9944 12.186C94.6398 11.8193 95.3731 11.636 96.1944 11.636V14.87H95.3804C94.4124 14.87 93.6791 15.0973 93.1804 15.552C92.6964 16.0067 92.4544 16.7987 92.4544 17.928V24H89.3744V11.812H92.4544V13.704ZM97.477 17.862C97.477 16.63 97.719 15.5373 98.203 14.584C98.7016 13.6307 99.369 12.8973 100.205 12.384C101.056 11.8707 102.002 11.614 103.043 11.614C103.952 11.614 104.744 11.7973 105.419 12.164C106.108 12.5307 106.658 12.9927 107.069 13.55V11.812H110.171V24H107.069V22.218C106.673 22.79 106.123 23.2667 105.419 23.648C104.73 24.0147 103.93 24.198 103.021 24.198C101.994 24.198 101.056 23.934 100.205 23.406C99.369 22.878 98.7016 22.1373 98.203 21.184C97.719 20.216 97.477 19.1087 97.477 17.862ZM107.069 17.906C107.069 17.158 106.922 16.52 106.629 15.992C106.336 15.4493 105.94 15.0387 105.441 14.76C104.942 14.4667 104.407 14.32 103.835 14.32C103.263 14.32 102.735 14.4593 102.251 14.738C101.767 15.0167 101.371 15.4273 101.063 15.97C100.77 16.498 100.623 17.1287 100.623 17.862C100.623 18.5953 100.77 19.2407 101.063 19.798C101.371 20.3407 101.767 20.7587 102.251 21.052C102.75 21.3453 103.278 21.492 103.835 21.492C104.407 21.492 104.942 21.3527 105.441 21.074C105.94 20.7807 106.336 20.37 106.629 19.842C106.922 19.2993 107.069 18.654 107.069 17.906Z" fill="black"/>
</svg>
