<svg width="16" height="16" viewBox="0 0 16 16" fill="none" xmlns="http://www.w3.org/2000/svg">
<path fill-rule="evenodd" clip-rule="evenodd" d="M0.5 7.18429C0.5 3.48113 3.50843 0.5 7.19403 0.5C10.8796 0.5 13.8881 3.48113 13.8881 7.18429C13.8881 8.76243 13.3417 10.2094 12.4294 11.3505L15.2626 14.1383C15.5729 14.4436 15.5799 14.9457 15.2782 15.2598C14.9766 15.5738 14.4805 15.5809 14.1702 15.2756L11.307 12.4582C10.1706 13.3427 8.74205 13.8686 7.19403 13.8686C3.50843 13.8686 0.5 10.8874 0.5 7.18429ZM7.19403 2.0861C4.35127 2.0861 2.06716 4.37989 2.06716 7.18429C2.06716 9.98869 4.35127 12.2825 7.19403 12.2825C10.0368 12.2825 12.3209 9.98869 12.3209 7.18429C12.3209 4.37989 10.0368 2.0861 7.19403 2.0861Z" fill="#999999"/>
</svg>
